<svg width="29" height="29" viewBox="0 0 29 29" fill="none" xmlns="http://www.w3.org/2000/svg">
<path d="M5 18.3271V11.1271H5.97412V18.3271H5ZM5.69882 18.3271V17.5329H9.88118V18.3271H5.69882ZM5.69882 11.9212V11.1271H9.88118V11.9212H5.69882ZM5.69882 14.9918V14.1976H9.48941V14.9918H5.69882Z" fill="black"/>
<path d="M11.9142 12.8847C11.9142 13.1388 11.9742 13.3435 12.0942 13.4988C12.2213 13.6541 12.3907 13.7776 12.6024 13.8694C12.8142 13.9541 13.0507 14.0247 13.3118 14.0812C13.573 14.1376 13.8413 14.1941 14.1166 14.2506C14.3989 14.3 14.6707 14.3671 14.9318 14.4518C15.193 14.5365 15.4295 14.6529 15.6413 14.8012C15.853 14.9494 16.0189 15.1435 16.1389 15.3835C16.266 15.6235 16.3295 15.9271 16.3295 16.2941C16.3295 16.7529 16.213 17.1447 15.9801 17.4694C15.7542 17.7941 15.4401 18.0412 15.0377 18.2106C14.6424 18.3729 14.1871 18.4541 13.6718 18.4541C13.1566 18.4541 12.6977 18.3765 12.2954 18.2212C11.9001 18.0588 11.5683 17.8188 11.3001 17.5012C11.0389 17.1765 10.8554 16.7741 10.7495 16.2941H11.766C11.886 16.7247 12.1048 17.0529 12.4224 17.2788C12.7471 17.5047 13.1671 17.6176 13.6824 17.6176C14.226 17.6176 14.6354 17.5082 14.9107 17.2894C15.193 17.0706 15.3342 16.7812 15.3342 16.4212C15.3342 16.1459 15.2707 15.9235 15.1436 15.7541C15.0236 15.5847 14.8577 15.4541 14.646 15.3624C14.4342 15.2635 14.1977 15.1859 13.9366 15.1294C13.6754 15.0659 13.4036 15.0059 13.1213 14.9494C12.846 14.8929 12.5777 14.8259 12.3166 14.7482C12.0554 14.6635 11.8189 14.5506 11.6071 14.4094C11.3954 14.2682 11.226 14.0812 11.0989 13.8482C10.9789 13.6153 10.9189 13.3153 10.9189 12.9482C10.9189 12.6024 11.0142 12.2812 11.2048 11.9847C11.3954 11.6882 11.6707 11.4518 12.0307 11.2753C12.3977 11.0918 12.846 11 13.3754 11C13.8413 11 14.2648 11.0776 14.646 11.2329C15.0342 11.3882 15.3589 11.6282 15.6201 11.9529C15.8813 12.2706 16.0542 12.6871 16.1389 13.2024H15.1118C14.9989 12.7224 14.7907 12.3765 14.4871 12.1647C14.1907 11.9459 13.813 11.8365 13.3542 11.8365C12.9024 11.8365 12.5495 11.9318 12.2954 12.1224C12.0413 12.3129 11.9142 12.5671 11.9142 12.8847Z" fill="black"/>
<path d="M23.4823 13.2024H22.4658C22.3317 12.7647 22.0881 12.4294 21.7352 12.1965C21.3893 11.9565 20.987 11.8365 20.5281 11.8365C20.0623 11.8365 19.6599 11.9529 19.3211 12.1859C18.9893 12.4188 18.7317 12.7541 18.5481 13.1918C18.3717 13.6224 18.2834 14.1376 18.2834 14.7376C18.2834 15.3376 18.3717 15.8529 18.5481 16.2835C18.7246 16.7141 18.9787 17.0459 19.3105 17.2788C19.6493 17.5047 20.0552 17.6176 20.5281 17.6176C20.9729 17.6176 21.3646 17.5047 21.7034 17.2788C22.0423 17.0529 22.2893 16.7247 22.4446 16.2941H23.4717C23.3376 16.7459 23.1258 17.1341 22.8364 17.4588C22.547 17.7835 22.2011 18.0306 21.7987 18.2C21.4034 18.3694 20.9764 18.4541 20.5176 18.4541C19.847 18.4541 19.2681 18.3059 18.7811 18.0094C18.3011 17.7059 17.9305 17.2788 17.6693 16.7282C17.4152 16.1706 17.2881 15.5071 17.2881 14.7376C17.2881 13.9682 17.4187 13.3047 17.6799 12.7471C17.9481 12.1894 18.3258 11.7588 18.8128 11.4553C19.2999 11.1518 19.8823 11 20.5599 11C21.0258 11 21.4564 11.0847 21.8517 11.2541C22.254 11.4165 22.5964 11.6635 22.8787 11.9953C23.1681 12.32 23.3693 12.7224 23.4823 13.2024Z" fill="black"/>
<rect x="0.5" y="0.5" width="28" height="28" rx="3.5" stroke="black"/>
</svg>
